<?xml version="1.0" standalone="no"?>
<!DOCTYPE svg PUBLIC "-//W3C//DTD SVG 1.1//EN" "http://www.w3.org/Graphics/SVG/1.1/DTD/svg11.dtd" >
<!--
2013-9-30: Created.
-->
<svg>
<metadata>
Created by iconfont
</metadata>
<defs>

<font id="iconfont" horiz-adv-x="1024" >
  <font-face
    font-family="iconfont"
    font-weight="500"
    font-stretch="normal"
    units-per-em="1024"
    ascent="896"
    descent="-128"
  />
    <missing-glyph />
    
    <glyph glyph-name="x" unicode="x" horiz-adv-x="1001"
d="M281 543q-27 -1 -53 -1h-83q-18 0 -36.5 -6t-32.5 -18.5t-23 -32t-9 -45.5v-76h912v41q0 16 -0.5 30t-0.5 18q0 13 -5 29t-17 29.5t-31.5 22.5t-49.5 9h-133v-97h-438v97zM955 310v-52q0 -23 0.5 -52t0.5 -58t-10.5 -47.5t-26 -30t-33 -16t-31.5 -4.5q-14 -1 -29.5 -0.5
t-29.5 0.5h-32l-45 128h-439l-44 -128h-29h-34q-20 0 -45 1q-25 0 -41 9.5t-25.5 23t-13.5 29.5t-4 30v167h911zM163 247q-12 0 -21 -8.5t-9 -21.5t9 -21.5t21 -8.5q13 0 22 8.5t9 21.5t-9 21.5t-22 8.5zM316 123q-8 -26 -14 -48q-5 -19 -10.5 -37t-7.5 -25t-3 -15t1 -14.5
t9.5 -10.5t21.5 -4h37h67h81h80h64h36q23 0 34 12t2 38q-5 13 -9.5 30.5t-9.5 34.5q-5 19 -11 39h-368zM336 498v228q0 11 2.5 23t10 21.5t20.5 15.5t34 6h188q31 0 51.5 -14.5t20.5 -52.5v-227h-327z" />
    

    
    <glyph glyph-name="next" unicode="&#58900;" d="M758.973302 318.533099l-27.581279 27.580149c-0.779791 0.781806-1.61996 1.462305-2.489806 2.083451L334.5499 742.549232c-7.514445 7.495718-19.689218 7.495718-27.204687 0L280.14155 715.34566c-7.514445-7.515161-7.514445-19.707854 0-27.223015l382.848861-382.833175L274.022951-83.694799c-7.628037-7.609305-7.628037-19.970844 0-27.579125l27.580255-27.578102c7.58915-7.610328 19.952218-7.610328 27.579232 0l429.78984 429.808046C766.600316 298.563278 766.600316 310.906397 758.973302 318.533099z"  horiz-adv-x="1024" />

    
    <glyph glyph-name="yingdaicon04" unicode="&#58947;" d="M691.328 453.536c11.648 0 23.04-0.896 34.432-2.24-31.104 144-185.344 250.816-361.792 250.816-197.184 0-358.72-133.76-358.72-303.68 0-97.984 53.696-178.432 143.616-241.024l-35.84-107.392 125.184 62.528c44.928-8.832 81.088-17.92 125.76-17.92 11.136 0 22.4 0.64 33.408 1.472-6.848 23.936-11.072 48.896-11.072 74.816C386.304 326.816 520.704 453.536 691.328 453.536zM498.368 550.432c27.008 0 44.864-17.728 44.864-44.672 0-26.752-17.856-44.672-44.864-44.672-26.944 0-53.952 17.92-53.952 44.672C444.416 532.704 471.424 550.432 498.368 550.432zM247.488 461.088c-27.008 0-54.208 17.92-54.208 44.672 0 26.88 27.2 44.672 54.208 44.672 26.688 0 44.416-17.728 44.416-44.672C291.968 479.008 274.176 461.088 247.488 461.088zM1018.496 175.264c0 142.784-143.424 259.072-304.448 259.072-170.816 0-305.28-116.224-305.28-259.072 0-143.104 134.464-259.072 305.28-259.072 35.712 0 71.552 8.832 107.52 17.792l98.368-53.696-27.008 89.344C964.992 23.328 1018.496 94.624 1018.496 175.264zM615.04 220c-17.728 0-35.968 17.536-35.968 35.584 0 17.856 18.176 35.712 35.968 35.712 27.264 0 44.8-17.856 44.8-35.712C659.904 237.6 642.304 220 615.04 220zM812.352 220c-17.92 0-35.712 17.536-35.712 35.584 0 17.856 17.728 35.712 35.712 35.712 26.752 0 44.8-17.856 44.8-35.712C857.216 237.6 839.104 220 812.352 220z"  horiz-adv-x="1024" />

    
    <glyph glyph-name="cntencentwechatmoments" unicode="&#59048;" d="M670.589199 784.130316c0 0-155.298354 66.773451-341.512815-6.393558l341.512815-352.513741L670.589199 784.130316zM284.813933 756.811628c0 0-151.23352-71.364126-231.879155-256.468478l484.107519 0L284.813933 756.811628zM712.322605 767.436953l0-492.454201 250.659188 244.849898C962.981794 519.83265 895.073194 685.806409 712.322605 767.436953zM36.241415 458.609742c0 0-66.773451-158.695453 5.50881-347.305412l345.051808 347.305412L36.241415 458.609742zM311.940647-170.504672 311.940647 324.061239 61.014365 69.913138C61.014365 69.913138 129.190058-88.874129 311.940647-170.504672zM732.404721-156.766035c0 0 158.019372 63.017444 238.665007 248.121797l-484.107519 0L732.404721-156.766035zM982.245934 485.302429l-345.051808-352.21326 350.560617 0C987.763091 133.089169 1054.536541 296.692471 982.245934 485.302429zM352.630719-184.24331c0 0 159.480041-66.614864 345.686155 6.552145L353.048053 172.018091 352.630719-184.24331z"  horiz-adv-x="1024" />

    
    <glyph glyph-name="notice" unicode="&#58885;" d="M457.288-181.856c-34.784 31.576-71.64 64.536-110.504 98.856-38.888 34.32-75.032 65.888-108.432 94.752-38.888 32.928-77.752 65.536-116.64 97.824-7.504-0.712-15-1.032-22.504-1.032-6.144-0.68-12.608-1.04-19.432-1.04L62.392 107.504c-18.432 0-33.432 5.64-45 17C5.784 135.824 0 149.36 0 165.144L0 424.648l1 0L0 425.68c0 19.216 5.968 35 17.896 47.352 11.928 12.36 26.752 18.536 44.504 18.536l58.32 0c62.712 53.568 119.68 101.608 170.824 144.176 21.824 18.536 43.32 36.536 64.464 54.032 21.144 17.536 40.216 33.464 57.288 47.896 17.032 14.432 31.36 26.432 42.968 36.032 11.608 9.608 18.752 15.464 21.464 17.504 20.464 15.112 37 21.968 49.648 20.608 12.6-1.36 22.504-7.536 29.64-18.536 7.176-11 12.112-24.352 14.856-40.144 2.712-15.824 4.072-30.216 4.072-43.248l0-834.072c0-13.032-2.392-26.96-7.144-41.712-4.792-14.752-12.112-26.432-22-35-9.896-8.568-22.36-12.176-37.36-10.824C494.432-210.32 477.032-200.392 457.288-181.856L457.288-181.856zM787.712 429.784c14.288-19.888 25.72-39.96 34.248-60.208 8.536-20.248 12.792-44.824 12.792-73.648 0-27.464-4.432-52.176-13.288-74.144-8.888-21.968-20.104-41.856-33.752-59.72-5.464-7.528-11.28-14.248-17.424-20.072-6.112-5.856-13.968-8.752-23.504-8.752-12.288 0-22.68 4.472-31.216 13.392-8.504 8.896-12.784 19.536-12.784 31.896 0 5.504 1.032 11 3.072 16.504l-1.04 0c3.432 7.528 7.504 14.752 12.288 21.6 4.784 6.856 9.392 13.896 13.824 21.112 4.432 7.216 8.176 15.472 11.248 24.72 3.072 9.28 4.608 20.424 4.608 33.464 0 12.352-1.536 23.176-4.608 32.432-3.072 9.288-6.824 17.672-11.248 25.248-4.432 7.536-9.04 14.752-13.824 21.608-4.792 6.856-8.536 14.072-11.248 21.648-2.072 4.784-3.072 10.288-3.072 16.464 0 12.352 4.248 23 12.784 31.928 8.536 8.928 18.928 13.36 31.216 13.36 9.528 0 17.392-2.896 23.504-8.752C776.432 444.032 782.248 437.36 787.712 429.784L787.712 429.784zM845-32.528c-8.208-6.176-17.752-9.288-28.64-9.288-13.648 0-25.432 5-35.32 14.928-9.896 9.96-14.832 21.824-14.832 35.528 0 15.112 5.792 27.832 17.4 38.112 0.68 0.68 1.352 1.176 2.032 1.536 0.68 0.352 1.36 0.848 2.072 1.528l1 1.04c19.112 13.032 36.856 28.504 53.216 46.36 16.36 17.848 30.68 37.208 42.96 58.168 12.248 20.928 21.824 43.248 28.648 66.928 6.824 23.68 10.208 48.216 10.208 73.608 0 51.504-12.96 98.504-38.856 141.072-25.928 42.576-58.32 77.576-97.176 105.032-14.32 10.288-21.504 24.04-21.504 41.176 0 13.752 4.928 25.568 14.832 35.536 9.888 9.968 21.672 14.928 35.32 14.928 11.568 0 21.784-3.784 30.68-11.32 25.208-17.856 48.752-38.608 70.568-62.288 21.824-23.712 40.6-49.432 56.28-77.248 15.68-27.792 27.968-57.504 36.824-89.072 8.856-31.568 13.288-64.176 13.288-97.824 0-34.32-4.432-67.248-13.288-98.856-8.848-31.568-21.32-61.432-37.352-89.568-16-28.144-34.928-54.072-56.752-77.752S870.888-14.68 845-32.528L845-32.528z"  horiz-adv-x="1024" />

    
    <glyph glyph-name="image" unicode="&#58897;" d="M32.935673 811.001949 32.935673-211.001949 32.935673 811.001949ZM64.873294 811.001949 64.873294-211.001949 64.873294 811.001949ZM96.810916 811.001949 96.810916-211.001949 96.810916 811.001949ZM128.748538 811.001949 128.748538-211.001949 128.748538 811.001949ZM160.68616 811.001949 160.68616-211.001949 160.68616 811.001949ZM192.623782 811.001949 192.623782-211.001949 192.623782 811.001949ZM224.561404 811.001949 224.561404-211.001949 224.561404 811.001949ZM256.499025 811.001949 256.499025-211.001949 256.499025 811.001949ZM288.436647 811.001949 288.436647-211.001949 288.436647 811.001949ZM320.374269 811.001949 320.374269-211.001949 320.374269 811.001949ZM352.311891 811.001949 352.311891-211.001949 352.311891 811.001949ZM384.249513 811.001949 384.249513-211.001949 384.249513 811.001949ZM416.187135 811.001949 416.187135-211.001949 416.187135 811.001949ZM448.124756 811.001949 448.124756-211.001949 448.124756 811.001949ZM480.062378 811.001949 480.062378-211.001949 480.062378 811.001949ZM512 811.001949 512-211.001949 512 811.001949ZM543.937622 811.001949 543.937622-211.001949 543.937622 811.001949ZM575.875244 811.001949 575.875244-211.001949 575.875244 811.001949ZM607.812865 811.001949 607.812865-211.001949 607.812865 811.001949ZM639.750487 811.001949 639.750487-211.001949 639.750487 811.001949ZM671.688109 811.001949 671.688109-211.001949 671.688109 811.001949ZM703.625731 811.001949 703.625731-211.001949 703.625731 811.001949ZM735.563353 811.001949 735.563353-211.001949 735.563353 811.001949ZM767.500975 811.001949 767.500975-211.001949 767.500975 811.001949ZM799.438596 811.001949 799.438596-211.001949 799.438596 811.001949ZM831.376218 811.001949 831.376218-211.001949 831.376218 811.001949ZM863.31384 811.001949 863.31384-211.001949 863.31384 811.001949ZM895.251462 811.001949 895.251462-211.001949 895.251462 811.001949ZM927.189084 811.001949 927.189084-211.001949 927.189084 811.001949ZM959.126706 811.001949 959.126706-211.001949 959.126706 811.001949ZM991.064327 811.001949 991.064327-211.001949 991.064327 811.001949ZM0.998051 779.064327 1023.001949 779.064327 0.998051 779.064327ZM0.998051 747.126706 1023.001949 747.126706 0.998051 747.126706ZM0.998051 715.189084 1023.001949 715.189084 0.998051 715.189084ZM0.998051 683.251462 1023.001949 683.251462 0.998051 683.251462ZM0.998051 651.31384 1023.001949 651.31384 0.998051 651.31384ZM0.998051 619.376218 1023.001949 619.376218 0.998051 619.376218ZM0.998051 587.438596 1023.001949 587.438596 0.998051 587.438596ZM0.998051 555.500975 1023.001949 555.500975 0.998051 555.500975ZM0.998051 523.563353 1023.001949 523.563353 0.998051 523.563353ZM0.998051 491.625731 1023.001949 491.625731 0.998051 491.625731ZM0.998051 459.688109 1023.001949 459.688109 0.998051 459.688109ZM0.998051 427.750487 1023.001949 427.750487 0.998051 427.750487ZM0.998051 395.812865 1023.001949 395.812865 0.998051 395.812865ZM0.998051 363.875244 1023.001949 363.875244 0.998051 363.875244ZM0.998051 331.937622 1023.001949 331.937622 0.998051 331.937622ZM0.998051 300 1023.001949 300 0.998051 300ZM0.998051 268.062378 1023.001949 268.062378 0.998051 268.062378ZM0.998051 236.124756 1023.001949 236.124756 0.998051 236.124756ZM0.998051 204.187135 1023.001949 204.187135 0.998051 204.187135ZM0.998051 172.249513 1023.001949 172.249513 0.998051 172.249513ZM0.998051 140.311891 1023.001949 140.311891 0.998051 140.311891ZM0.998051 108.374269 1023.001949 108.374269 0.998051 108.374269ZM0.998051 76.436647 1023.001949 76.436647 0.998051 76.436647ZM0.998051 44.499025 1023.001949 44.499025 0.998051 44.499025ZM0.998051 12.561404 1023.001949 12.561404 0.998051 12.561404ZM0.998051-19.376218 1023.001949-19.376218 0.998051-19.376218ZM0.998051-51.31384 1023.001949-51.31384 0.998051-51.31384ZM0.998051-83.251462 1023.001949-83.251462 0.998051-83.251462ZM0.998051-115.189084 1023.001949-115.189084 0.998051-115.189084ZM0.998051-147.126706 1023.001949-147.126706 0.998051-147.126706ZM0.998051-179.064327 1023.001949-179.064327 0.998051-179.064327ZM0.998051 683.251462l0-830.378168 1022.003899 0 0 830.378168-1022.003899 0zM959.126706-83.251462l-894.253411 0 0 702.62768 894.253411 0 0-702.62768zM703.625731 459.688109c0 52.916647 42.896218 95.812865 95.812865 95.812865s95.812865-42.896218 95.812865-95.812865c0-52.916647-42.896218-95.812865-95.812865-95.812865s-95.812865 42.896218-95.812865 95.812865zM895.251462-19.376218l-766.502924 0 191.625731 511.001949 255.500975-319.376218 127.750487 95.812865z"  horiz-adv-x="1024" />

    
    <glyph glyph-name="shangchuan" unicode="&#58888;" d="M512.149403 747.006753c-246.710938 0-446.708971-199.999057-446.708971-446.708971S265.438465-146.411189 512.149403-146.411189s446.708971 199.999057 446.708971 446.708971S758.860341 747.006753 512.149403 747.006753zM532.637016 311.357675c-0.804319-0.630357-0.9967-1.260713-3.043313-1.89107 0-1.865487 0-3.730974 0-5.596462 0-79.730902 0.478907-158.448732 0.797156-238.177588 0.045025-11.405771-2.819209-19.756973-13.477966-22.826891-3.175319 0-6.350638 0-9.526981 0-10.658757 3.069919-13.474896 11.42112-13.429871 22.826891 0.318248 79.729879 0.845251 158.447708 0.845251 238.177588 0 1.87265 0 3.744277 0 5.616928-2.046612 0.623193-2.286066 1.24741-3.091408 1.870604-0.850367-1.74883-1.650593-3.88447-2.949168-5.188162-12.447497-12.496615-25.142633-24.917506-37.779442-37.22174-6.405897-6.237051-14.499226-7.519254-21.975501-3.946892-6.938016 3.314489-11.555174 10.335393-10.289344 18.024515 0.697895 4.239558 2.723018 9.003048 5.699816 12.004405 24.471344 24.667819 49.239448 49.031716 74.046437 73.362868 8.253988 8.095375 19.135826 8.094352 27.390837-0.002047 24.808012-24.331151 49.526997-48.751331 74.166163-73.253374 7.865131-7.821129 7.893784-19.063171 0.50142-26.484188-7.363711-7.391341-18.752086-7.630794-26.631544-0.051165-12.837376 12.350283-25.750477 24.950252-38.32691 37.567617C534.264073 307.472182 533.487384 309.607822 532.637016 311.357675zM812.026214 271.590973c0-3.925403-1.531889-7.875365-2.509147-11.773138-10.3006-41.091884-47.035246-70.433142-89.373517-70.723761-43.918255-0.301875-87.813998-0.118704-131.733277-0.077771-11.806907 0.011256-19.980054 7.792477-19.926842 18.645662 0.053212 10.82351 8.299013 18.395976 20.168342 18.404162 43.567261 0.032746 87.138616-0.130983 130.704854 0.102331 25.739221 0.138146 48.03604 18.170848 53.782927 42.772152 7.909134 33.861202-17.124006 66.745147-51.92665 68.211545-15.173584 0.638543-21.067828 6.6607-21.509896 21.971407-2.360767 81.927941-62.558801 149.361773-144.105049 161.427576-75.626421 11.189853-150.83431-27.891234-181.954075-95.138824-4.982478-10.767228-8.115841-22.488177-11.200086-34.010605-3.108804-11.612479-9.17087-17.070794-21.219277-17.178241-12.488429-0.11154-24.994254 0.684592-37.283138-2.87242-33.966603-9.831926-56.548924-41.434691-54.061266-76.066443 2.526543-35.178197 29.122271-63.560618 64.149019-68.292386 4.697999-0.63445 9.481955-0.86981 14.227026-0.87902 35.982516-0.070608 71.965032-0.01535 107.948571-0.053212 10.328229-0.011256 18.287505-6.570649 19.419282-15.791661 1.409093-11.482519-6.567579-21.147646-18.204617-21.186532-39.685861-0.134053-79.397305-0.867764-119.052466 0.25071-53.241598 1.50119-98.198509 43.513026-105.179504 96.29516-0.130983 0.992607-0.816598 1.935072-0.816598 2.90005 0 7.762801 0 15.524578 0 23.287379 0 4.086062 1.509377 8.188496 2.455935 12.256138 11.872399 51.04149 56.398498 86.756923 108.843964 87.239923 1.401929 0.013303 2.76702 0.002047 4.471848 0.002047 2.088568 6.025227 3.845585 12.07399 6.226818 17.874089 27.41335 66.76152 77.180823 108.3538 146.690944 124.286678 77.786621 17.830087 146.062634-2.293229 201.723328-60.185754 31.133068-32.381501 48.54053-71.76651 53.248761-116.556623 0.336668-3.207042 1.577938-4.27435 4.602831-5.129834 39.774889-11.252275 63.686485-36.923958 70.701249-77.986165 0.113587-0.663102 0.692778-1.276063 0.692778-1.912559C812.026214 284.998331 812.026214 278.294652 812.026214 271.590973z"  horiz-adv-x="1024" />

    
    <glyph glyph-name="set" unicode="&#58922;" d="M512.064 435.424C437.312 435.424 376.64 374.816 376.64 300s60.672-135.36 135.424-135.36S647.424 225.248 647.424 300 586.88 435.424 512.064 435.424zM512 780C246.784 780 32 565.152 32 300c0-265.152 214.784-480 480-480 265.152 0 480 214.848 480 480C992 565.152 777.152 780 512 780zM836.992 245.792l-32.576 0c-14.784 0-30.656-11.648-35.136-25.792l-18.624-45.312c-6.976-13.184-4.16-32.64 6.336-43.072l23.104-22.976c10.496-10.624 10.496-27.904 0-38.4l-38.4-38.336c-10.56-10.56-27.776-10.56-38.4 0l-22.912 23.04c-10.496 10.496-29.952 13.376-43.072 6.272L592 42.656c-14.144-4.48-25.792-20.224-25.792-35.136l0-32.448c0-14.848-12.224-27.072-27.072-27.072L484.928-52c-14.912 0-27.136 12.16-27.136 27.072L457.792 7.52c0 14.848-11.584 30.656-25.856 35.136L386.56 61.28c-13.12 7.104-32.448 4.224-42.88-6.272l-23.104-23.04c-10.496-10.56-27.776-10.56-38.272 0L243.968 70.24c-10.496 10.496-10.496 27.776 0 38.4l23.04 22.976c10.56 10.432 13.376 29.888 6.4 43.072L254.656 220C250.304 234.208 234.496 245.792 219.584 245.856L187.136 245.856C172.16 245.856 160 258.016 160 272.928L160 327.072c0 14.912 12.16 27.072 27.136 27.072l32.448-0.064c14.912 0 30.72 11.648 35.072 25.856l18.688 45.376c7.04 13.12 4.16 32.448-6.4 43.008l-23.04 23.04c-10.496 10.56-10.496 27.776 0 38.272l38.336 38.336c10.496 10.496 27.776 10.496 38.272 0l23.104-23.04c10.56-10.56 29.824-13.376 42.944-6.4L432 557.344c14.272 4.352 25.856 20.16 25.856 35.136L457.856 624.928C457.792 639.84 470.016 652 484.928 652l54.144 0c14.848 0 27.072-12.16 27.072-27.072l0-32.448c0-14.912 11.712-30.72 25.792-35.136l45.312-18.688c13.12-7.04 32.576-4.16 43.072 6.4l22.976 23.04c10.624 10.496 27.84 10.496 38.4 0l38.4-38.336c10.496-10.496 10.496-27.776 0-38.336l-23.104-22.976c-10.496-10.56-13.312-29.888-6.336-43.008l18.624-45.312c4.48-14.272 20.224-25.856 35.136-25.856l32.576 0c14.784 0 27.008-12.16 27.008-27.072l0-54.208C864 258.016 851.84 245.792 836.992 245.792z"  horiz-adv-x="1024" />

    
    <glyph glyph-name="touxiang" unicode="&#58956;" d="M809.365-161.265c-76.353 0.232-165.549-0.164-292.921-0.175v46.962c41.58 22.218 86.797 258.99 120.927 258.076 131.343-26.878 224.545-101.849 224.545-244.361-1.744-37.040-19.54-60.6-52.551-60.501zM695.812 314.821c-28.93-96.531-104.697-165.409-193.613-165.409-88.987 0-164.802 68.987-193.679 165.638-13.305 6.203-29.579 20.049-35.645 55.376-7.94 46.217 20.572 57.28 20.572 57.28 2.051 0.109 4.173-1.514 6.303-4.373 4.376 12.78 12.279 24.016 21.899 33.474 36.378 35.768 103.31 54.868 184.117 55.218 73.211 0.316 124.415-4.378 176.503-54.167 9.151-8.747 17.774-22.352 22.451-36.364 2.592 4.041 5.195 6.406 7.692 6.275 0 0 28.84-11.034 20.808-57.131-6.349-36.435-23.72-49.94-37.408-55.817zM286.27 481.204v194.377c0 0 94.665 58.338 208.139 58.338 109.454 0 219.508-58.338 219.508-58.338v-194.595c0 0-63.188 71.412-213.835 71.412-151.54 0-213.813-71.194-213.813-71.194zM559.471 628.215v25.393h-46.917v46.885h-24.941v-46.885h-46.71v-25.393h46.71v-46.838h24.941v46.838h46.917zM495.5-114.479v-46.962c-127.373 0.011-216.569 0.407-292.921 0.175-33.011-0.099-50.807 23.461-52.551 60.5 0 142.514 93.203 217.483 224.545 244.361 34.129 0.915 79.346-235.857 120.927-258.075z"  horiz-adv-x="1024" />

    
    <glyph glyph-name="exit" unicode="&#58941;" d="M588.8 486.4c14.1312 0 25.6 11.4688 25.6 25.6l0 204.8c0 42.3424-34.4576 76.8-76.8 76.8l-460.8 0c-42.3424 0-76.8-34.4576-76.8-76.8l0-614.4c0-38.1952 27.4944-79.872 62.5664-94.8736l264.2944-113.2544c9.1136-3.8912 18.3808-5.8368 27.2384-5.8368 10.9056 0 21.2992 2.9696 30.1568 8.8064 16.0768 10.5984 25.344 29.44 25.344 51.6096l0 76.8 128 0c42.3424 0 76.8 34.4576 76.8 76.8l0 204.8c0 14.1312-11.4688 25.6-25.6 25.6s-25.6-11.4688-25.6-25.6l0-204.8c0-14.1312-11.4688-25.6-25.6-25.6l-128 0 0 486.4c0 38.1952-27.4944 79.872-62.5664 94.8736l-196.7104 84.3264 387.2768 0c14.1312 0 25.6-11.4688 25.6-25.6l0-204.8c0-14.1312 11.4688-25.6 25.6-25.6zM326.8608 611.0208c16.4864-7.0656 31.5392-29.9008 31.5392-47.8208l0-614.4c0-5.3248-1.4336-8.2944-2.304-8.8576s-4.1472-0.7168-9.0624 1.3824l-264.2944 113.2544c-16.4864 7.0656-31.5392 29.8496-31.5392 47.8208l0 614.4c0 4.0448 0.9216 7.8336 2.6112 11.264l273.0496-117.0432zM939.7248 427.7248l-153.6 153.6c-9.984 9.984-26.2144 9.984-36.1984 0s-9.984-26.2144 0-36.1984l109.8752-109.8752-322.2016 0c-14.1312 0-25.6-11.4688-25.6-25.6s11.4688-25.6 25.6-25.6l322.2016 0-109.8752-109.8752c-9.984-9.984-9.984-26.2144 0-36.1984 5.0176-5.0176 11.5712-7.4752 18.1248-7.4752s13.1072 2.5088 18.1248 7.4752l153.6 153.6c9.984 9.984 9.984 26.2144 0 36.1984z"  horiz-adv-x="1024" />

    
    <glyph glyph-name="fanhui" unicode="&#58902;" d="M364.360811 379.892551 780.372439 795.932802c22.898672 22.898672 22.898672 60.023145 0 82.893194S720.349294 901.724668 697.450622 878.825996l-455.969811-455.969811c-22.898672-22.898672-22.898672-60.023145 0-82.893194 1.80327-1.80327 3.835528-3.234437 5.839161-4.751474 0.34348-0.372103 0.60109-0.801454 0.94457-1.173557l445.264682-445.264682c22.354829-22.354829 58.591978-22.354829 80.97543 0 22.354829 22.354829 22.354829 58.591978 0 80.946806L364.360811 379.892551z"  horiz-adv-x="1024" />

    
    <glyph glyph-name="exit1" unicode="&#58903;" d="M512.000512 875.163439c-271.230378 0-491.164462-219.935108-491.164462-491.164462 0-271.229354 219.934085-491.162416 491.164462-491.162416 271.229354 0 491.162416 219.933061 491.162416 491.162416C1003.162928 655.228331 783.229866 875.163439 512.000512 875.163439zM617.915773 163.285133c-7.476275-7.213285-16.755616-11.342326-27.331485-11.342326L397.203976 151.942807c-21.403472 0-39.443337 7.731078-54.66604 22.686698-15.47239 15.474436-22.685675 33.780361-22.685675 54.665017L319.85226 538.703431c0 21.403472 7.213285 39.444361 22.685675 54.917774 15.222703 14.70491 33.262568 22.435988 54.66604 22.435988l193.380312 0c10.57587 0 19.854187-4.130064 27.331485-11.343349 7.216355-7.478322 11.345396-16.757662 11.345396-27.332509 0-10.828626-4.130064-20.10592-11.345396-27.333532-7.476275-7.730055-16.755616-11.344373-27.331485-11.344373L435.879833 538.703431c-10.576893 0-19.85521-5.161556-27.332509-14.95562-7.731078-10.060123-11.343349-22.169929-11.343349-35.842323l0-0.768503 0-221.228567c0-10.0591 3.612271-18.557658 11.343349-25.784246 7.226588-7.214309 16.504906-10.827603 26.816762-10.827603l0.515746 0 154.704454 0c10.57587 0 19.854187-3.612271 27.331485-11.343349 7.216355-7.226588 11.345396-16.504906 11.345396-27.331485C629.260146 180.042795 625.130082 170.764478 617.915773 163.285133zM779.835559 358.983233l-77.351716-96.689133c-3.865028-4.89652-9.279341-7.214309-15.2094-7.214309-2.316765 0-4.381797 0-5.930059 0.768503-4.130064 1.549286-7.479345 4.129041-9.79611 7.227612-2.328022 3.348258-3.611248 7.213285-3.611248 11.341303l0 58.014298L513.232572 332.431507c-10.828626 0-20.10592 3.613294-27.333532 11.344373-7.731078 7.227612-11.342326 16.503882-11.342326 27.332509 0 10.574846 3.612271 19.85214 11.342326 27.331485 7.226588 7.214309 16.504906 11.344373 27.333532 11.344373l154.704454 0L667.937027 467.797521c0 4.130064 1.283226 7.731078 3.611248 10.827603 2.316765 3.349281 5.666046 6.195096 9.79611 7.742335 1.548262 0.25071 3.611248 0.76748 5.930059 0.76748 5.930059 0 11.343349-2.316765 15.208377-7.214309l77.352739-96.690156c2.580778-3.612271 4.130064-7.742335 4.130064-12.123109C783.9646 366.209822 782.417361 362.344794 779.835559 358.983233z"  horiz-adv-x="1024" />

    
    <glyph glyph-name="hospital" unicode="&#58886;" d="M972.8-51.2 972.8 488.8l-120.8 0L852 684 514.4 869.6 172 684l0-195.2L51.2 488.8l0-540L0-51.2l0-54.4 51.2 0 920.8 0 51.2 0 0 54.4L972.8-51.2zM404 648.8c0 10.4 8.8 19.2 19.2 19.2l44 0L467.2 712c0 10.4 8.8 19.2 19.2 19.2l52 0c10.4 0 19.2-8.8 19.2-19.2l0-44 44 0c10.4 0 19.2-8.8 19.2-19.2l0-52c0-10.4-8.8-19.2-19.2-19.2l-44 0 0-44c0-11.2-8.8-19.2-19.2-19.2l-52 0c-10.4 0-19.2 8.8-19.2 19.2l0 44-44 0c-10.4 0-19.2 8.8-19.2 19.2L404 648.8zM397.6 410.4l93.6 0 0-93.6L397.6 316.8 397.6 410.4zM218.4-12.8 124.8-12.8l0 93.6 93.6 0L218.4-12.8zM218.4 184.8 124.8 184.8 124.8 279.2l93.6 0L218.4 184.8zM218.4 316 124.8 316 124.8 410.4l93.6 0L218.4 316zM354.4-12.8 261.6-12.8l0 93.6 93.6 0 0-93.6L354.4-12.8zM354.4 184.8 261.6 184.8 261.6 279.2l93.6 0 0-94.4L354.4 184.8zM354.4 316 261.6 316 261.6 410.4l93.6 0 0-94.4L354.4 316zM397.6 279.2l93.6 0 0-93.6L397.6 185.6 397.6 279.2zM611.2-84.8 412.8-84.8l0 200 198.4 0C611.2 115.2 611.2-84.8 611.2-84.8zM626.4 184.8 533.6 184.8 533.6 279.2l93.6 0L626.4 184.8 626.4 184.8zM626.4 316 533.6 316 533.6 410.4l93.6 0L626.4 316 626.4 316zM762.4-12.8 669.6-12.8l0 93.6 93.6 0L762.4-12.8 762.4-12.8zM762.4 184.8 669.6 184.8 669.6 279.2l93.6 0L762.4 184.8 762.4 184.8zM762.4 316 669.6 316 669.6 410.4l93.6 0L762.4 316 762.4 316zM898.4-12.8l-93.6 0 0 93.6 93.6 0L898.4-12.8zM898.4 184.8l-93.6 0L804.8 279.2l93.6 0L898.4 184.8zM898.4 316l-93.6 0L804.8 410.4l93.6 0L898.4 316z"  horiz-adv-x="1024" />

    
    <glyph glyph-name="search3" unicode="&#59345;" d="M409.6 128.396899c87.317829 0 166.697674 30.95814 228.613953 83.348837l277.829457-277.829457c6.350388-6.350388 14.288372-9.525581 23.020155-9.525581s16.669767 3.175194 23.020155 9.525581c12.700775 12.700775 12.700775 33.339535 0 46.04031l-277.829457 277.829457c51.596899 61.916279 83.348837 142.089922 83.348837 228.613953 0 197.655814-160.347287 358.003101-358.003101 358.003101C212.737984 844.403101 51.596899 683.262016 51.596899 486.4 51.596899 288.744186 212.737984 128.396899 409.6 128.396899zM409.6 779.311628c161.934884 0 292.911628-131.770543 292.911628-292.911628C702.511628 324.465116 571.534884 193.488372 409.6 193.488372c-161.934884 0-292.911628 131.770543-292.911628 292.911628C116.688372 647.541085 248.458915 779.311628 409.6 779.311628z"  horiz-adv-x="1024" />

    
    <glyph glyph-name="camera" unicode="&#58901;" d="M276.31746 806.603175l235.68254 0c16.253968 0 24.380952 8.126984 24.380952 24.380952L536.380952 871.619048c0 16.253968-8.126984 24.380952-24.380952 24.380952L276.31746 896c-16.253968 0-24.380952-8.126984-24.380952-24.380952l0-32.507937C251.936508 822.857143 260.063492 806.603175 276.31746 806.603175zM568.888889 83.301587c138.15873 0 243.809524 105.650794 243.809524 243.809524S707.047619 570.920635 568.888889 570.920635 325.079365 465.269841 325.079365 327.111111 430.730159 83.301587 568.888889 83.301587zM568.888889 489.650794c89.396825 0 162.539683-73.142857 162.539683-162.539683s-73.142857-162.539683-162.539683-162.539683-162.539683 73.142857-162.539683 162.539683S471.365079 489.650794 568.888889 489.650794zM1007.746032 782.222222 560.761905 782.222222c-16.253968 0-32.507937-16.253968-32.507937-40.634921 0-16.253968 16.253968-32.507937 32.507937-32.507937L1007.746032 709.079365c32.507937 0 56.888889-24.380952 56.888889-56.888889l0-650.15873c0-32.507937-24.380952-56.888889-56.888889-56.888889L130.031746-54.857143c-32.507937 0-56.888889 24.380952-56.888889 56.888889l0 650.15873c0 32.507937 24.380952 56.888889 56.888889 56.888889l121.904762 0c16.253968 0 32.507937 16.253968 32.507937 32.507937s-16.253968 32.507937-32.507937 32.507937L130.031746 774.095238C56.888889 782.222222 0 725.333333 0 652.190476l0-650.15873c0-73.142857 56.888889-130.031746 130.031746-130.031746l877.714286 0c73.142857 0 130.031746 56.888889 130.031746 130.031746l0 650.15873C1137.777778 725.333333 1080.888889 782.222222 1007.746032 782.222222zM950.857143 668.444444c-32.507937 0-56.888889-32.507937-56.888889-65.015873l121.904762 0C1015.873016 635.936508 983.365079 668.444444 950.857143 668.444444z"  horiz-adv-x="1138" />

    
    <glyph glyph-name="tingzhenqi" unicode="&#58919;" d="M993.958763 122.536637c0 72.02075-58.367527 130.046947-130.046947 130.046947-72.02075 0-130.046947-58.367527-130.046946-130.046947 0-52.564908 31.061082-97.279212 75.775386-118.100376-22.869148-42.666321-65.194139-74.068733-139.262872-74.068734-75.434056 0-120.831021 20.138504-147.454806 65.8768-20.821165 35.83971-32.426404 90.452601-35.83971 172.371937 19.797173 9.215925 34.815718 26.623784 40.277008 48.12761 44.031643 11.263909 86.697964 28.330437 113.663079 40.277007l0.682661 0.341331c135.166905 63.828816 225.960836 207.187655 225.960836 357.031775 0 35.83971-2.389314 88.745948-12.970561 138.23888v0.682661c-16.725198 68.266114-48.12761 83.96732-91.135262 90.452601 0.341331 14.335884-10.239917 28.330437-24.23447 31.743743L654.334847 895.309045c-14.677214 3.413306-27.989107-6.14395-29.354429-21.503826l-8.191933-91.135262c-1.365322-15.018545 9.898586-26.965115 25.258462-26.282454l87.380625 4.437298c13.653223 0.682661 25.599793 11.263909 28.671768 24.5758 8.533264-1.365322 15.359876-3.071975 19.797173-5.802619 5.461289-3.413306 12.970562-10.922578 19.797173-39.935677 7.509273-34.474387 11.605239-78.847361 11.605239-125.268318 0-127.657633-77.140708-249.512646-192.16911-304.125537-35.498379-15.701206-69.290105-27.647776-99.327195-35.498379-12.970562 19.797173-35.498379 33.109065-61.098172 33.109065-25.599793 0-48.12761-13.311892-61.098172-33.109065-30.03709 7.850603-63.487486 19.797173-99.327195 35.498379-115.028402 54.27156-192.16911 176.467904-192.16911 304.125537 0 46.420957 4.095967 90.793931 11.605239 125.268318 7.167942 29.013098 14.335884 36.522371 19.797173 39.935677 4.778628 2.730645 11.263909 4.437297 19.797173 5.802619 3.413306-12.970562 15.018545-23.89314 28.671768-24.5758l87.380625-4.437298c15.359876-0.682661 26.623784 10.922578 25.258462 26.282454L288.428478 873.805219c-1.365322 15.018545-14.677214 24.917132-29.354429 21.503826L174.082737 875.511872c-13.994553-3.413306-24.575801-17.407859-24.23447-31.743743-43.348982-6.485281-74.751395-22.186487-91.135262-90.452601v-0.682661c-10.581248-49.492932-12.970562-102.399171-12.970562-138.23888 0-149.84412 90.793931-293.202958 225.960837-357.031775l0.682661-0.341331c26.965115-11.94657 69.631436-29.354429 113.663079-40.277007 5.80262-22.527818 21.503826-40.618338 42.666321-49.492932 3.754636-93.524576 17.407859-155.646739 43.690313-200.361044 37.205032-63.828816 102.05784-94.889898 197.97173-94.889898 70.314097 0 127.998963 23.89314 166.569317 68.948775 12.970562 15.018545 22.527818 32.767735 31.061082 51.882246 69.631436 2.047983 125.95098 59.050188 125.95098 129.705616z"  horiz-adv-x="1024" />

    
    <glyph glyph-name="add" unicode="&#58883;" d="M921.6 435.2H563.2V793.6c0 28.16-23.04 51.2-51.2 51.2s-51.2-23.04-51.2-51.2v-358.4H102.4c-28.16 0-51.2-23.04-51.2-51.2s23.04-51.2 51.2-51.2h358.4v-358.4c0-28.16 23.04-51.2 51.2-51.2s51.2 23.04 51.2 51.2V332.8h358.4c28.16 0 51.2 23.04 51.2 51.2s-23.04 51.2-51.2 51.2z"  horiz-adv-x="1024" />

    
    <glyph glyph-name="xiaoxi" unicode="&#58895;" d="M557.335273 576.698182a68.701091 68.701091 0 0 1-69.632-67.584c0-37.329455 31.185455-67.677091 69.632-67.677091a68.701091 68.701091 0 0 1 69.632 67.677091 68.701091 68.701091 0 0 1-69.632 67.677091zM1058.909091 892.648727H55.854545A54.737455 54.737455 0 0 1 0 838.842182v-704.512c0-29.696 24.948364-53.713455 55.761455-53.713455h279.272727L250.88-128l334.196364 208.523636h473.925818c30.72 0 55.761455 24.203636 55.761454 53.806546V838.842182a54.737455 54.737455 0 0 1-55.761454 53.713454z m0-725.178182c0-14.801455-12.474182-26.810182-27.927273-26.810181H557.428364L390.050909 33.047273l42.170182 107.426909H83.595636c-15.36 0-27.927273 12.101818-27.927272 26.810182V811.938909c0 14.894545 12.567273 26.903273 27.927272 26.903273h947.479273c15.36 0 27.927273-12.101818 27.927273-26.903273v-644.561454zM812.776727 576.791273a68.701091 68.701091 0 0 1-69.632-67.677091c0-37.329455 31.185455-67.677091 69.632-67.677091a68.701091 68.701091 0 0 1 69.632 67.677091 68.701091 68.701091 0 0 1-69.632 67.677091z m-510.882909 0a68.701091 68.701091 0 0 1-69.632-67.677091c0-37.329455 31.185455-67.677091 69.632-67.677091a68.701091 68.701091 0 0 1 69.632 67.677091 68.701091 68.701091 0 0 1-69.632 67.677091z"  horiz-adv-x="1117" />

    
    <glyph glyph-name="mingpian" unicode="&#58884;" d="M512-128C229.23264-128 0 101.23264 0 384S229.23264 896 512 896s512-229.23264 512-512-229.23264-512-512-512zM245.76 506.96192v-253.05088a81.92 81.92 0 0 1 82.04288-81.83808h368.39424A81.85856 81.85856 0 0 1 778.24 253.91104V506.96192A81.92 81.92 0 0 1 696.19712 588.8H327.80288A81.85856 81.85856 0 0 1 245.76 506.96192z m249.93792-61.27616c0 6.38976 5.20192 11.5712 11.61216 11.5712h187.22816a11.5712 11.5712 0 1 0 0-23.1424h-187.22816a11.5712 11.5712 0 0 0-11.61216 11.5712z m26.29632-65.78176c0 6.41024 5.12 11.59168 11.53024 11.59168h161.11616c6.3488 0 11.50976-5.14048 11.50976-11.59168 0-6.38976-5.12-11.5712-11.50976-11.5712H533.504a11.50976 11.50976 0 0 0-11.53024 11.5712z m26.3168-65.76128c0 6.38976 5.24288 11.5712 11.59168 11.5712h134.63552a11.5712 11.5712 0 1 0 0-23.1424H559.9232a11.5712 11.5712 0 0 0-11.59168 11.5712z m-152.4736-30.24896c-48.128 0-65.18784 7.20896-65.18784 7.20896-3.60448 0-6.8608 4.03456-6.8608 8.47872v8.47872c0 30.84288 19.49696 55.0912 44.62592 55.0912h55.66464c25.10848 0 44.60544-24.24832 44.60544-55.0912v-8.47872c0-4.44416-3.23584-8.47872-6.8608-8.47872 0 0-17.8176-7.20896-65.98656-7.20896z m-1.16736 95.80544a45.28128 45.28128 0 1 0 0 90.56256 45.28128 45.28128 0 0 0 0-90.56256z"  horiz-adv-x="1024" />

    
    <glyph glyph-name="mima" unicode="&#59214;" d="M715.107438 550.433851V663.272727c0 112.174545-90.932893 203.107438-203.107438 203.107438S308.892562 775.443041 308.892562 663.272727v-112.838876H105.785124V-81.454545h812.429752V550.433851h-203.107438zM354.028959 663.272727c0 87.247339 70.727934 157.975273 157.971041 157.975273 87.247339 0 157.971041-70.727934 157.971041-157.975273v-112.838876H354.028959V663.272727z m519.04952-699.590876H150.921521v541.619835h722.16119v-541.619835z m-398.589884 264.31048l-22.671868-151.475835h120.362314l-22.671867 151.475835c31.105058 13.603967 52.761388 43.507306 52.761388 78.302148 0 47.590612-40.414149 86.168331-90.268562 86.168331-49.854413 0-90.268562-38.577719-90.268562-86.168331 0-34.794843 21.652099-64.702413 52.757157-78.302148z"  horiz-adv-x="1024" />

    
    <glyph glyph-name="gongzuotai" unicode="&#58981;" d="M921.6 819.2h-819.2c-28.16 0-51.2-23.04-51.2-51.2v-588.8c0-28.16 23.04-51.2 51.2-51.2h307.2v-102.4h-281.6c-12.8 0-25.6-12.8-25.6-25.6s12.8-25.6 25.6-25.6h768c12.8 0 25.6 12.8 25.6 25.6s-12.8 25.6-25.6 25.6h-281.6v102.4h307.2c28.16 0 51.2 23.04 51.2 51.2v588.8c0 28.16-23.04 51.2-51.2 51.2z m-358.4-793.6h-102.4v102.4h102.4v-102.4z m358.4 153.6h-819.2v588.8h819.2v-588.8zM281.6 281.6c12.8 0 25.6 12.8 25.6 25.6v128c0 12.8-12.8 25.6-25.6 25.6s-25.6-12.8-25.6-25.6v-128c0-12.8 12.8-25.6 25.6-25.6zM435.2 281.6c12.8 0 25.6 12.8 25.6 25.6v230.4c0 12.8-12.8 25.6-25.6 25.6s-25.6-12.8-25.6-25.6v-230.4c0-12.8 12.8-25.6 25.6-25.6zM588.8 281.6c12.8 0 25.6 12.8 25.6 25.6v179.2c0 12.8-12.8 25.6-25.6 25.6s-25.6-12.8-25.6-25.6v-179.2c0-12.8 12.8-25.6 25.6-25.6zM742.4 281.6c12.8 0 25.6 12.8 25.6 25.6v281.6c0 12.8-12.8 25.6-25.6 25.6s-25.6-12.8-25.6-25.6v-281.6c0-12.8 12.8-25.6 25.6-25.6z"  horiz-adv-x="1024" />

    
    <glyph glyph-name="event" unicode="&#58944;" d="M10.056741 326.06296L579.838561 896l443.818454-0.250355 0.250355-443.708297-50.811951-50.79693a14.1951 14.1951 0 0 0 13.193683-23.548344l-179.84967-502.912132-259.963112 73.984764a14.1951 14.1951 0 0 0-10.920464 14.996235L443.760873-127.989986 0.082618 316.088837l9.974123 9.974123z m544.200597-350.020634l234.39691-66.709462 171.182396 478.662794c-137.109149-137.079106-274.203276-274.173234-411.312424-411.25234a14.430434 14.430434 0 0 0 5.733118-0.700992z m244.265884 737.158828a42.580294 42.580294 0 0 1 0-85.160589 42.580294 42.580294 0 1 1 0 85.160589z m-206.93302 154.518801L40.099282 316.078823l403.616527-403.977038L995.622318 463.898137l-0.225319 403.591492-403.806797 0.230326z"  horiz-adv-x="1024" />

    
    <glyph glyph-name="weibo" unicode="&#59051;" d="M0.06656 895.93616zM756.702969 391.086284c-11.682793 2.362095-19.2798 5.809476-22.727182 10.469826-3.511222 4.660349-4.085786 8.937656-1.723691 12.83192l3.511222 5.809476a14.36409 14.36409 0 0 1 2.362095 3.511222c0.766085 1.59601 2.362095 4.85187 4.660349 9.959102a77.885287 77.885287 0 0 1 5.234913 15.194015c1.212968 5.043392 2.170574 11.299751 2.936658 18.705237a76.289277 76.289277 0 0 1-7.597007 42.581546 70.735162 70.735162 0 0 1-14.619452 21.003492 77.246883 77.246883 0 0 1-42.645386 21.003491 157.813466 157.813466 0 0 1-52.540649 0.574564 424.538653 424.538653 0 0 1-49.60399-10.405985 422.878803 422.878803 0 0 1-38.559601-12.257357l-15.194015-7.022444a140.129676 140.129676 0 0 0-19.21596-4.660349 22.47182 22.47182 0 0 0-11.682793 0.574563 33.963092 33.963092 0 0 0-6.44788 3.511222c-1.53217 1.212968-2.106733 3.894264-1.723691 8.171572a159.792519 159.792519 0 0 0 4.021945 25.72768c1.59601 6.639401 2.745137 11.874314 3.511222 15.768579 0 9.320698-0.574564 18.066833-1.723691 26.238404a126.46783 126.46783 0 0 1-7.597007 27.451371 59.307731 59.307731 0 0 1-16.917706 24.514714 86.567581 86.567581 0 0 1-28.025935 15.130174c-11.299751 3.894264-25.855362 5.107232-43.794514 3.511222-17.875312-1.53217-38.112718-6.192519-60.712219-13.981047a373.466334 373.466334 0 0 1-82.864838-41.432419c-28.025935-18.258354-52.349127-37.346633-72.969576-57.200998-20.620449-19.854364-39.517207-39.134165-56.626434-57.775561-17.109227-18.705237-30.38803-33.835411-39.708728-45.518204l-12.895761-18.705237a388.85187 388.85187 0 0 1-57.137157-100.420948c-12.512718-33.452369-18.322195-58.797007-17.55611-75.906234v-24.514713c4.660349-37.346633 16.151621-70.799002 34.473816-100.420948 18.258354-29.558105 40.091771-53.498254 65.372568-71.820449 25.280798-18.258354 55.094264-33.835411 89.312719-46.667332a584.139651 584.139651 0 0 1 98.633416-28.025935 876.528678 876.528678 0 0 1 99.846384-12.257356 604.7601 604.7601 0 0 1 179.2 13.406483 540.72818 540.72818 0 0 1 172.81596 70.671322c53.306733 33.452369 90.908728 73.54414 112.678304 120.275312 13.214963 27.25985 20.045885 52.923691 20.428928 77.055361 0.383042 24.131671-3.702743 43.794514-12.257356 58.924689a149.641895 149.641895 0 0 1-33.260848 40.283291 166.112718 166.112718 0 0 1-38.495761 25.727681 132.085786 132.085786 0 0 1-32.111721 10.469826l-0.06384-0.063841z m-356.037905-363.124189c-84.077805-3.894264-155.451372 12.448878-214.184539 49.029426-58.733167 36.580549-88.099751 82.928678-88.099751 138.916708 0 55.285786 29.175062 102.910723 87.589028 143.002494 58.286284 40.155611 129.915212 62.116708 214.695262 66.074813 84.84389 3.894264 156.408978-10.086783 214.822942-42.006982 58.350125-31.9202 87.589027-75.523192 87.589028-130.745138 0-56.05187-29.749626-106.421945-89.312718-151.174064-59.563092-44.81596-130.553616-69.139152-213.099252-73.097257z m-33.835412 323.415461a191.904239 191.904239 0 0 1-60.712219-15.768578c-17.939152-8.171571-31.9202-17.492269-42.006983-28.025936a179.519202 179.519202 0 0 1-25.727681-33.835411 130.234414 130.234414 0 0 1-14.619451-35.622943 250.062843 250.062843 0 0 1-6.44788-54.838902l1.149127-9.320699v-4.660349c0-2.362095 0.766085-7.022444 2.362095-13.981047 1.59601-7.022444 3.702743-13.406484 6.44788-19.279801 2.745137-5.873317 7.213965-12.257357 13.406484-19.2798s13.598005-12.83192 22.216459-17.49227c51.391521-24.897756 99.27182-32.494763 143.577057-22.727182a180.79601 180.79601 0 0 1 107.379551 67.1601c10.916708 13.214963 18.130673 29.558105 21.578055 49.029427a137.384539 137.384539 0 0 1-2.362095 58.924688 149.131172 149.131172 0 0 1-26.174563 54.264339c-12.448878 16.343142-30.962594 28.983541-55.477307 37.921197-24.514713 8.937656-52.73217 11.491272-84.588529 7.533167z m-42.070823-220.632419a53.242893 53.242893 0 0 0-25.089276 1.787531 131.383541 131.383541 0 0 0-10.469826 4.085786 23.876309 23.876309 0 0 0-8.746135 6.44788 115.998005 115.998005 0 0 0-6.44788 8.171571 36.389027 36.389027 0 0 0-6.38404 20.428928c0 8.554613 2.362095 16.917706 7.022444 25.089277 4.660349 8.171571 11.108229 15.194015 19.279801 21.003491a52.987531 52.987531 0 0 0 27.451371 9.959102c7.022444 0.766085 13.789526 0.574564 20.428928-0.574563a51.2 51.2 0 0 0 29.175062-15.130175 30.707232 30.707232 0 0 0 7.597008-12.257357 50.178554 50.178554 0 0 0 2.362094-15.194014c0-8.554613-2.553616-16.726185-7.597007-24.514714-5.043392-7.788529-11.874314-14.36409-20.428928-19.854364s-17.939152-8.554613-28.025935-9.320698l-0.127681-0.127681z m99.271821 84.013965a26.046883 26.046883 0 0 0-16.917706-5.298753c-5.809476 0.383042-9.895262 2.872818-12.257357 7.597008l-2.362094 4.660349a10.661347 10.661347 0 0 0-1.149128 4.660349v4.660349c0 2.362095 0.383042 4.277307 1.149128 5.809476l2.362094 4.660349a7.213965 7.213965 0 0 0 3.511222 3.511222l3.511222 4.660349c6.256359 4.660349 12.257357 6.639401 18.066833 5.809477a14.683292 14.683292 0 0 0 12.257357-9.320698 14.42793 14.42793 0 0 0 2.936658-10.469826 28.983541 28.983541 0 0 0-3.511222-11.108229 48.965586 48.965586 0 0 0-7.597007-9.831422z m414.45187 244.061846a24.259352 24.259352 0 0 1 12.83192 3.511222 30.132668 30.132668 0 0 1 13.981048 19.854364c0.766085 0.766085 1.149127 1.915212 1.149127 3.511222 9.320698 88.738155-21.769576 139.363591-93.398504 151.812468a164.516708 164.516708 0 0 1-58.413965 1.149128 23.493267 23.493267 0 0 1-13.981047-4.085786 37.218953 37.218953 0 0 1-9.959103-10.469825 24.387032 24.387032 0 0 1-4.085785-13.406484c0-7.788529 2.745137-14.42793 8.171571-19.854364a27.068329 27.068329 0 0 1 19.854364-8.171571c60.712219 14.044888 93.398504-5.426434 98.058853-58.413965 1.59601-13.214963 0.766085-25.66384-2.362095-37.346634 0-7.788529 2.745137-14.42793 8.171571-19.854364 5.554115-5.490274 12.129676-8.171571 19.982045-8.235411z m-19.854364 329.161097c-34.218454 7.788529-80.183541 6.256359-137.767581-4.660349-0.766085 0-1.53217-0.383042-2.362095-1.149127l-1.149127-2.362095-1.149127-1.149127a37.921197 37.921197 0 0 1-21.003491-14.619452 39.772569 39.772569 0 0 1-8.171572-23.940149 39.581047 39.581047 0 0 1 11.682794-29.175063 38.176559 38.176559 0 0 1 28.025935-11.682793h3.511222c0.766085 0 2.553616 0.383042 5.298753 1.149127a60.648379 60.648379 0 0 0 8.746134 1.723691 55.604988 55.604988 0 0 1 9.959103 2.362095c3.511222 1.149127 6.639401 2.362095 9.320698 3.511222a46.795012 46.795012 0 0 0 15.768578 1.723691c7.788529 0 17.364589-0.574564 28.600499-1.723691 11.23591-1.149127 23.684788-4.085786 37.346634-8.746135a300.049875 300.049875 0 0 0 40.857855-17.492269c13.598005-7.022444 27.19601-16.726185 40.857855-29.175062 13.661845-12.448878 25.53616-26.812968 35.622943-43.15611 20.237406-45.901247 24.131671-90.270324 11.682793-133.107232a5.554115 5.554115 0 0 0-0.574564-2.362095 39.261845 39.261845 0 0 1-1.72369-5.809476 188.77606 188.77606 0 0 0-2.362095-8.746135 117.721696 117.721696 0 0 1-2.362095-10.469825 64.287282 64.287282 0 0 1-1.149127-11.10823c0-7.022444 1.915212-12.83192 5.809476-17.492269a31.9202 31.9202 0 0 1 14.619452-9.959102c5.873317-1.915212 12.640399-2.936658 20.428927-2.936659 21.769576 0 34.601496 13.214963 38.495761 39.708729 9.320698 30.38803 14.619451 59.371571 15.768578 86.950623a266.852868 266.852868 0 0 1-5.809476 72.969576 234.549626 234.549626 0 0 1-22.727182 58.924688A196.309227 196.309227 0 0 1 957.672545 712.650374a288.430923 288.430923 0 0 1-44.369077 35.048379 290.026933 290.026933 0 0 1-94.675312 40.283292z"  horiz-adv-x="1025" />

    
    <glyph glyph-name="people" unicode="&#58893;" d="M513.018 608.112m-276.864 0a276.864 276.864 0 1 1 553.728 0 276.864 276.864 0 1 1-553.728 0ZM140.749 117.407l119.845 175.586s39.02 58.529 89.189 8.362c50.168-50.169 130.99-119.847 130.99-119.847s41.807-36.23 100.334 16.723c58.531 52.955 103.125 108.697 103.125 108.697s33.444 41.806 80.826-16.724c47.379-58.527 139.354-119.843 139.354-239.688s-75.252-170.011-379.045-170.011c0.001 0.001-518.398-16.723-384.618 236.902z"  horiz-adv-x="1024" />

    
    <glyph glyph-name="yonghu" unicode="&#58949;" d="M605.090909-81.454545H418.909091c-181.527273 0-325.818182 0-325.818182 93.090909v18.618181C93.090909 197.818182 237.381818 337.454545 418.909091 337.454545h186.181818c176.872727 0 325.818182-139.636364 325.818182-311.854545v-13.963636c0-93.090909-148.945455-93.090909-325.818182-93.090909z m-190.836364 372.363636C260.654545 290.909091 139.636364 169.890909 139.636364 20.945455v-18.618182c0-37.236364 158.254545-37.236364 274.618181-37.236364h195.49091c97.745455 0 274.618182 0 274.618181 37.236364v18.618182c0 148.945455-121.018182 269.963636-274.618181 269.963636H414.254545z m97.745455 93.090909c-130.327273 0-232.727273 102.4-232.727273 232.727273s102.4 232.727273 232.727273 232.727272 232.727273-102.4 232.727273-232.727272-102.4-232.727273-232.727273-232.727273zM325.818182 616.727273c0-102.4 83.781818-186.181818 186.181818-186.181818s186.181818 83.781818 186.181818 186.181818-83.781818 186.181818-186.181818 186.181818-186.181818-83.781818-186.181818-186.181818z"  horiz-adv-x="1024" />

    
    <glyph glyph-name="exit2" unicode="&#58904;" d="M512 896C230.4 896 0 665.6 0 384s230.4-512 512-512 512 230.4 512 512S793.6 896 512 896z m-25.6-119.466667c0 17.066667 12.8 29.866667 29.866667 29.866667 17.066667 0 29.866667-12.8 29.866666-29.866667v-448c0-17.066667-12.8-29.866667-29.866666-29.866666-17.066667 0-29.866667 12.8-29.866667 29.866666V776.533333z m119.466667-780.8c-29.866667-8.533333-64-12.8-93.866667-12.8-179.2 0-341.333333 123.733333-384 302.933334-34.133333 140.8 12.8 285.866667 115.2 384 12.8 12.8 34.133333 12.8 42.666667 0 12.8-8.533333 12.8-29.866667 0-38.4-89.6-81.066667-128-204.8-98.133334-324.266667 42.666667-179.2 221.866667-290.133333 405.333334-247.466667 179.2 42.666667 290.133333 226.133333 247.466666 405.333334-12.8 59.733333-46.933333 115.2-89.6 157.866666-12.8 12.8-12.8 29.866667 0 42.666667 12.8 12.8 29.866667 12.8 42.666667 0 51.2-51.2 85.333333-115.2 102.4-187.733333 51.2-213.333333-76.8-430.933333-290.133333-482.133334z"  horiz-adv-x="1024" />

    
    <glyph glyph-name="avatar" unicode="&#58882;" d="M512 896C229.228 896 0 666.7719999999999 0 384s229.228-512 512-512 512 229.228 512 512S794.772 896 512 896ZM338.159 541.275v0.045511c0.011378 97.7465 79.269 176.97 177.015 176.959 97.7465-0.022756 176.97-79.269 176.959-177.015 0-97.7465-79.2462-176.981-176.993-176.981s-176.981 79.2348-176.981 176.981v0.011378Zm176.981-529.203c-127.09 0-243.12 58.0153-320.501 149.197 11.0478 27.5911 24.8491 58.0153 44.214 74.5472 41.3924 33.1662 165.74 88.4508 165.74 88.4508l77.3803-149.208 13.8012 35.9083-22.1184 44.2254 44.2254 44.2254 44.2254-44.2254-19.3764-46.9675 11.0592-35.8969 80.1223 146.455s124.257-55.2732 165.74-88.4395c19.365-13.8012 33.1662-38.6503 41.4834-60.7573-74.5586-96.7566-193.422-157.514-325.996-157.514Z"  horiz-adv-x="1024" />

    
    <glyph glyph-name="yuanchenghuizhen" unicode="&#59723;" d="M844.3044358703507 797.6852658855415H179.69556412964954c-65.15550619664668 0-118.16530049630626-53.00979429965958-118.16530049630626-118.16530049630626v-420.7865217839019c0-65.15550619664668 53.00979429965958-118.16530049630626 118.16530049630626-118.16530049630626h253.35730147002937l-28.03729984715751-82.52274200332751H312.6173384777896c-17.026700477416867 0-30.875082736363655-13.848382258946783-30.875082736363655-30.875082736363655S295.5906380003728-3.7047659381178164 312.6173384777896-3.7047659381178164h398.8788342971452c17.026700477416867 0 30.875082736363655 13.848382258946783 30.875082736363655 30.87508430745365s-13.848382258946783 30.875082736363655-30.875082736363655 30.875082736363655h-92.51173852745632l-28.03729984715751 82.52274200332751h253.35730147002937c65.15550619664668 0 118.16530049630626 53.00979429965958 118.16530049630626 118.16530049630626V679.5199653892353c0 65.15550619664668-53.00979429965958 118.16530049630626-118.16530049630626 118.16530049630626z m-290.70253189605785-739.6398647798419H470.3980960257072l28.03729984715751 82.52274200332751h27.24271950699499l27.923788594432867-82.52274200332751z m348.36629069960793 200.68804249963378c0-31.783174329250823-25.880584474299237-57.66375880355006-57.66375880355006-57.66375880355006H179.69556412964954c-31.783174329250823 0-57.66375880355006 25.880584474299237-57.66375880355006 57.66375880355006V679.5199653892353c0 31.783174329250823 25.880584474299237 57.66375880355006 57.66375880355006 57.66375880355006h664.608871740701c31.783174329250823 0 57.66375880355006-25.880584474299237 57.66375880355006-57.66375880355006v-420.7865217839019zM611.7197077887412 496.53969245445614h-68.78786942601533v68.78786942601533c0 17.026700477416867-13.848382258946783 30.875082736363655-30.875082736363655 30.875082736363655s-30.875082736363655-13.848382258946783-30.875082736363655-30.875082736363655v-68.78786942601533h-68.78786942601533c-17.026700477416867 0-30.875082736363655-13.848382258946783-30.87508430745365-30.87508430745365s13.848382258946783-30.875082736363655 30.87508430745365-30.875082736363655h68.78786942601533v-68.78786942601533c0-17.026700477416867 13.848382258946783-30.875082736363655 30.875082736363655-30.87508430745365s30.875082736363655 13.848382258946783 30.875082736363655 30.87508430745365v68.78786942601533h68.78786942601533c17.026700477416867 0 30.875082736363655 13.848382258946783 30.87508430745365 30.875082736363655s-13.848382258946783 30.875082736363655-30.87508430745365 30.87508430745365z"  horiz-adv-x="1024" />

    
    <glyph glyph-name="jiaotongshishi-" unicode="&#58892;" d="M337.273522 724.700259a82.118886 82.118886 0 0 1 60.37401 25.582208 82.118886 82.118886 0 0 1 25.582208 60.374009 82.118886 82.118886 0 0 1-25.582208 60.37401 85.444573 85.444573 0 0 1-120.74802 0 82.118886 82.118886 0 0 1-25.582207-60.37401 82.118886 82.118886 0 0 1 25.582207-60.374009 82.118886 82.118886 0 0 1 60.37401-25.582208z m60.37401-782.048086a253.008033 253.008033 0 0 0-187.261759 76.746623 260.682695 260.682695 0 0 0-76.746623 190.331624 255.822076 255.822076 0 0 0 93.63088 201.843618l-6.13973 83.142175a341.522471 341.522471 0 0 1-113.32918-121.771308 327.963901 327.963901 0 0 1-42.722286-163.214485 328.731367 328.731367 0 0 1 97.724033-240.216929A318.754306 318.754306 0 0 1 397.647532-127.954719a302.893338 302.893338 0 0 1 181.889496 61.397298 366.593035 366.593035 0 0 1 123.817885 153.493245l-51.164415 68.560316A261.450161 261.450161 0 0 0 563.164415 3.026183a249.426524 249.426524 0 0 0-165.261061-60.37401z m520.08628 164.237773h-43.745575l-170.633324 235.100488q-35.303446 62.420586-85.188752 62.420586h-191.354912v85.444573h170.633324q45.792152 0 45.792152 32.233582t-45.792152 32.233582h-170.633324V639.511508q-4.093153 64.467163-85.188751 62.420586-64.467163-2.046577-64.467164-62.420586v-297.521074q6.13973-64.467163 85.188752-64.467163h255.822075L767.822076 86.168358l41.698998-64.467163h108.212738a39.908244 39.908244 0 0 1 29.163717 12.535282 42.722287 42.722287 0 0 1 0 60.374009 39.908244 39.908244 0 0 1-29.163717 12.535282z"  horiz-adv-x="1024" />

    
    <glyph glyph-name="yingxiang" unicode="&#59016;" d="M930.909091-128H93.090909a93.090909 93.090909 0 0 0-93.090909 93.090909V802.909091a93.090909 93.090909 0 0 0 93.090909 93.090909h837.818182a93.090909 93.090909 0 0 0 93.090909-93.090909v-837.818182a93.090909 93.090909 0 0 0-93.090909-93.090909z m0 884.363636a46.545455 46.545455 0 0 1-46.545455 46.545455H139.636364a46.545455 46.545455 0 0 1-46.545455-46.545455v-744.727272a46.545455 46.545455 0 0 1 46.545455-46.545455h744.727272a46.545455 46.545455 0 0 1 46.545455 46.545455V756.363636z m-372.363636-651.636363h-93.09091v44.730182C342.946909 141.079273 232.727273 104.727273 232.727273 104.727273v93.090909s110.219636 36.352 232.727272 44.730182v46.545454C342.946909 280.715636 232.727273 244.363636 232.727273 244.363636v93.090909s110.219636 37.003636 232.727272 44.869819v46.359272c-122.507636-8.564364-232.727273-44.683636-232.727272-44.683636V477.090909s110.219636 36.352 232.727272 44.730182V523.636364h93.09091v-1.722182C681.006545 513.861818 791.272727 477.090909 791.272727 477.090909v-93.090909s-110.266182 37.003636-232.727272 44.869818v-46.731636c122.507636-8.564364 232.727273-44.683636 232.727272-44.683637v-93.090909s-110.266182 36.770909-232.727272 44.823273v-46.545454c122.461091-8.052364 232.727273-44.823273 232.727272-44.823273v-93.090909s-110.266182 36.770909-232.727272 44.823272V104.727273zM512 570.181818a93.090909 93.090909 0 1 0 0 186.181818 93.090909 93.090909 0 0 0 0-186.181818zM372.363636-34.909091H279.272727v93.090909h93.090909v-93.090909z m232.727273 0H418.909091v93.090909h186.181818v-93.090909z m139.636364 0h-93.090909v93.090909h93.090909v-93.090909z"  horiz-adv-x="1024" />

    
    <glyph glyph-name="guanbi" unicode="&#58916;" d="M512 439.689846L94.247385 857.442462a39.542154 39.542154 0 0 1-55.689847 0 39.266462 39.266462 0 0 1 0-55.689847L456.310154 384 38.557538-33.752615a39.542154 39.542154 0 0 1 0-55.689847 39.266462 39.266462 0 0 1 55.689847 0L512 328.310154l417.752615-417.752616c15.163077-15.163077 40.290462-15.36 55.689847 0a39.266462 39.266462 0 0 1 0 55.689847L567.689846 384 985.442462 801.752615a39.542154 39.542154 0 0 1 0 55.689847 39.266462 39.266462 0 0 1-55.689847 0L512 439.689846z"  horiz-adv-x="1024" />

    
    <glyph glyph-name="binglixue" unicode="&#58880;" d="M509.312 224.64c-86.4 0-156.8 70.4-156.8 156.8s70.4 156.8 156.8 156.8 156.8-70.4 156.8-156.8-70.4-156.8-156.8-156.8z m0 268.8c-61.696 0-112-50.304-112-112s50.304-112 112-112 112 50.304 112 112-50.304 112-112 112zM525.568 630.784c-65.28 0-118.4 53.12-118.4 118.4s53.12 118.4 118.4 118.4 118.4-53.12 118.4-118.4-53.12-118.4-118.4-118.4z m0 192c-40.576 0-73.6-33.024-73.6-73.6s33.024-73.6 73.6-73.6 73.6 33.024 73.6 73.6-33.024 73.6-73.6 73.6zM188.928 425.984c-68.864 0-124.8 55.936-124.8 124.8s55.936 124.8 124.8 124.8 124.8-55.936 124.8-124.8-55.936-124.8-124.8-124.8z m0 204.8c-44.16 0-80-35.84-80-80s35.84-80 80-80 80 35.84 80 80-35.84 80-80 80zM580.736-99.584c-72.32 0-131.2 58.88-131.2 131.2s58.88 131.2 131.2 131.2 131.2-58.88 131.2-131.2-58.88-131.2-131.2-131.2z m0 217.6c-47.616 0-86.4-38.784-86.4-86.4s38.784-86.4 86.4-86.4 86.4 38.784 86.4 86.4-38.784 86.4-86.4 86.4zM249.856 151.68c-54.656 0-99.2 44.544-99.2 99.2s44.544 99.2 99.2 99.2 99.2-44.544 99.2-99.2-44.544-99.2-99.2-99.2z m0 153.6c-29.952 0-54.4-24.448-54.4-54.4s24.448-54.4 54.4-54.4 54.4 24.448 54.4 54.4-24.448 54.4-54.4 54.4zM818.048 305.536c-68.864 0-124.8 55.936-124.8 124.8s55.936 124.8 124.8 124.8 124.8-55.936 124.8-124.8c0-68.736-56.064-124.8-124.8-124.8z m0 204.8c-44.16 0-80-35.84-80-80s35.84-80 80-80 80 35.84 80 80-35.968 80-80 80zM631.04 380.16l97.92 15.232-6.912 44.288-98.432-15.36c4.736-13.824 7.424-28.672 7.424-44.16zM393.728 466.688l-99.456 55.168-21.76-39.168 98.432-54.656c5.376 14.208 13.184 27.136 22.784 38.656zM496.64 514.56c12.288 0 24.064-1.664 35.456-4.736l10.24 130.048-44.672 3.456-10.112-129.152c2.944 0.256 5.888 0.384 9.088 0.384zM368.64 339.072l-52.864-27.776 20.736-39.68 52.736 27.648c-8.96 11.904-16 25.344-20.608 39.808zM509.312 246.4l27.52-114.176 43.52 10.496-27.776 115.328c-13.44-6.272-27.904-10.24-43.264-11.648z"  horiz-adv-x="1024" />

    
    <glyph glyph-name="xindianzhenduan" unicode="&#59078;" d="M1150.57029 354.931351l-34.327915-34.474199-446.165374-448.237726L223.936008 320.457152l-34.327915 34.474199A317.386931 317.386931 0 0 0 146.990767 408.373673H0v48.761243h121.537398C73.873283 572.138308 96.474119 709.596252 189.608093 803.169077a314.461256 314.461256 0 0 0 446.165374 0l34.303534-34.498579 34.327915 34.498579a314.461256 314.461256 0 0 0 446.165374 0c123.19528-123.780415 123.19528-324.457311 0-448.237726z m-34.327915 413.739147a266.041342 266.041342 0 0 1-377.509544 0L670.077001 699.7221l-34.303534 34.474199-17.163958 17.237099-17.163957 17.2371a266.041342 266.041342 0 0 1-377.509544 0C139.993529 684.362308 123.780415 557.900025 174.979721 457.134916h65.047498l126.023432 218.255324L365.709323 676.56051l1.414076 0.731418 17.310241 29.963784 19.797064-11.434511L414.470566 700.941131l3.583951-13.092394 8.606359-4.973646-4.924885-8.533218 99.741122-365.099807 90.769054 237.564776-2.730629 6.68029 21.284282 41.861527 3.096339 8.094367 0.511993-1.023986 0.511993 1.023986 8.63074-19.309453L658.276781 554.657402l-0.682658-1.97483L755.799267 333.013172 822.187699 481.515538H1048.366725v-48.761243h-195.72763l-64.852453-158.400898c-6.534007-11.093183-20.309058-14.994082-31.987375-10.044816-11.678318-4.949266-25.453369-1.048367-31.987376 10.044816l-87.965282 214.842036-87.282625-254.753114a23.600442 23.600442 0 0 0-5.09555-5.753826l0.146284-0.560755-0.853322-0.243806a24.234338 24.234338 0 0 0-18.675556-5.339356l-3.486429-0.999606a23.259113 23.259113 0 0 0-28.988559 17.090816l-106.860264 371.658194-104.373441-180.806689a23.966151 23.966151 0 0 0-17.700331-11.556414A23.94177 23.94177 0 0 0 243.806215 408.373673H206.869573c5.363737-6.509626 10.99566-12.872968 17.066435-18.968124l17.163958-17.237099 17.139577-17.237099L292.567458 320.457152l171.590814-172.395375 205.918729-206.893954 446.165374 448.237726c104.251538 104.73915 104.251538 274.550179 0 379.264949z"  horiz-adv-x="1243" />

    
    <glyph glyph-name="event-note" unicode="&#60133;" d="M725.333333 469.333333H298.666667v-85.333333h426.666666v85.333333z m85.333334 298.666667h-42.666667V853.333333h-85.333333v-85.333333H341.333333V853.333333H256v-85.333333H213.333333c-47.36 0-84.906667-38.4-84.906666-85.333333L128 85.333333a85.333333 85.333333 0 0 1 85.333333-85.333333h597.333334c46.933333 0 85.333333 38.4 85.333333 85.333333V682.666667c0 46.933333-38.4 85.333333-85.333333 85.333333z m0-682.666667H213.333333V554.666667h597.333334v-469.333334z m-213.333334 213.333334H298.666667v-85.333334h298.666666v85.333334z"  horiz-adv-x="1024" />

    
    <glyph glyph-name="shuangxiangzhuanzhen" unicode="&#58881;" d="M303.347 676.281h321.159c20.442 0 37.5 17.058 37.5 37.5V850.23v0.341l-64.017-26.517 68.397-70.196 134.313-137.846 93.913-96.383 4.715-4.839v53.033l-77.286-71.919L681.442 365.07l-67.593-62.897 64.017-26.517V413.679v0.75c0 20.442-17.058 37.5-37.5 37.5H362.821l37.5-37.5V547.255c0 13.225-7.169 25.7-18.573 32.38-14.621 8.564-33.446 5.971-45.443-5.864l-72.097-71.123L127.09 367.384l-83.379-82.252-0.813-0.802c-7.026-6.931-10.983-16.668-10.983-26.517 0-10.643 4.373-18.611 10.983-26.517l61.828-73.935 123.228-147.357 91.244-109.11 7.193-8.602c8.364-10.001 24.475-12.947 36.486-9.644 16.086 4.425 27.531 19.482 27.531 36.16v144.78 5.888l-37.5-37.5h246.488c20.442 0 37.5 17.058 37.5 37.5s-17.058 37.5-37.5 37.5H352.908c-20.442 0-37.5-17.058-37.5-37.5v-150.668l64.017 26.517-61.828 73.935-123.228 147.357-91.244 109.11-7.193 8.602v-53.033l72.097 71.122 137.118 135.265 83.379 82.252 0.813 0.801-64.017 26.517v-132.826c0-20.442 17.058-37.5 37.5-37.5H640.367l-37.5 37.5v-138.773c0-13.225 7.169-25.7 18.573-32.38 14.942-8.754 33.057-5.663 45.443 5.863l77.286 71.919L884.768 451.89l67.593 62.898c15.106 14.057 13.869 38.799 0 53.033l-68.397 70.196-134.313 137.846a8428145.66 8428145.66 0 0 1-93.913 96.383l-4.715 4.839c-9.299 9.543-23.711 13.158-36.485 9.644-16.087-4.425-27.531-19.483-27.531-36.161V713.778l37.5 37.5H303.348c-20.442 0-37.5-17.058-37.5-37.5s17.057-37.497 37.499-37.497z"  horiz-adv-x="1024" />

    
    <glyph glyph-name="announcement" unicode="&#58924;" d="M236.544 612.864l-125.44-232.96H18.432l125.44 232.96h92.672z m147.968-393.216l-30.208 111.104h77.824l48.64-177.664H402.944l-16.384 59.904-26.112-52.224-313.344 0.512v52.736L215.04 435.2h97.792l-170.496-216.064 242.176 0.512zM276.48 612.864h89.6L491.52 379.904H401.92L276.48 612.864zM647.68 521.216l-18.432-46.08h-89.6l58.368 139.776h87.04l-15.36-38.4h58.88v36.864h84.48v-36.864h177.152l-23.552-55.296h-153.088v-81.92h188.928l-28.672-56.32h-429.568v56.32h184.832v81.92h-81.408z m-85.504-163.84h414.72v-136.192l-84.48-65.536h-330.752v201.728z m330.752-54.272h-246.784v-92.672h246.784v92.672z"  horiz-adv-x="1024" />

    


  </font>
</defs>
</svg>
